{"title":"Gamer (2009) (MPEG-4)(IPONE)(NL SUBS) 2Lions-Team","uid":5173851,"size":1159649845,"categoryP":"video","categoryS":"handheld","magnet":"?xt=urn:btih:d47490003f350eee3e400dac804e01bb575e921c&amp;dn=Gamer+%282009%29+%28MPEG-4%29%28IPONE%29%28NL+SUBS%29+2Lions-Team&amp;tr=udp%3A%2F%2Ftracker.openbittorrent.com%3A80&amp;tr=udp%3A%2F%2Fopen.demonii.com%3A1337&amp;tr=udp%3A%2F%2Ftracker.coppersurfer.tk%3A6969&amp;tr=udp%3A%2F%2Fexodus.desync.com%3A6969","seeders":0,"leechers":0,"uploader":"Pioen","files":-1,"time":1258844689,"description":"Gamer (2009) (MPEG-4)(IPONE)(NL SUBS) 2Lions-Team      \n\n\nVerenigde Staten\nThriller / Science-Fiction\n95 minuten\n\ngeregisseerd door Mark Neveldine en Brian Taylor\nmet Gerard Butler, John Leguizamo en Alison Lohman\n\nIn een futuristische toekomst worden gevangenen opgepakt en veroordeeld om in een uiterst gevaarlijk virtual reality spel met elkaar te vechten tot het eind. EÃƒÂ©n van de sterspelers, Kable, afkomstig van ÃƒÂ©ÃƒÂ©n van de competities genaamd 'Slayers' probeert zijn onafhankelijkheid te winnen door helemaal van onderaan te beginnen om zo tot het eind te overleven en het uiteindelijk op te nemen tegen de genie van het spel, Zaal.\n\n\n\nEnglish\n\nSet in a future-world where humans can control other humans in mass-scale, multi-player online gaming environments, a star player (Butler) from a game called &quot;Slayers&quot; looks to regain his independence while taking down the game's mastermind\n\n\nGAMER (2009)\n\n\n\nSource.............: Gamer 720p BluRay x264-iNFAMOUS\nCategorie : Beeld\nFormaat : MPEG-4\nOndertitels : Nederlands (hardcoded) \n\nFormat                           : MPEG-4\nFormat profile                   : Base Media\nCodec ID                         : isom\nFile size                        : 1.08 GiB\nDuration                         : 1h 34mn\nOverall bit rate                 : 1 631 Kbps\n\n\nVideo\nID                               : 1\nFormat                           : MPEG-4 Visual\nFormat profile                   : Simple@L1\nFormat settings, BVOP            : No\nFormat settings, QPel            : No\nFormat settings, GMC             : No warppoints\nFormat settings, Matrix          : Default (H.263)\nCodec ID                         : 20\nDuration                         : 1h 34mn\nBit rate mode                    : Variable\nBit rate                         : 1 499 Kbps\nWidth                            : 720 pixels\nHeight                           : 406 pixels\nDisplay aspect ratio             : 16/9\nFrame rate mode                  : Constant\nFrame rate                       : 23.976 fps\nResolution                       : 24 bits\nColorimetry                      : 4:2:0\nScan type                        : Progressive\nBits/(Pixel*Frame)               : 0.214\nStream size                      : 1 016 MiB (92%)\nWriting library                  : Lavc51.40.4\n\n\nAudio\nID                               : 2\nFormat                           : AAC\nFormat/Info                      : Advanced Audio Codec\nFormat version                   : Version 4\nFormat profile                   : LC\nFormat settings, SBR             : No\nCodec ID                         : 40\nDuration                         : 1h 34mn\nBit rate mode                    : Variable\nBit rate                         : 128 Kbps\nChannel(s)                       : 2 channels\nChannel positions                : L R\nSampling rate                    : 48.0 KHz\nResolution                       : 16 bits\nStream size                      : 86.7 MiB (8%)\n\n\nSpotinformatie \nCategorie : Beeld \nFormaat : DVD5 \nBron : Retail\n \nOndertitels : Nederlands (Hardcoded)\n \nGenre : Actie\nScience Fiction\n \nWeblink : http://www.moviemeter.nl/film/47857\nWeblink : http://www.imdb.com/title/tt1034032 \n  \n***************************************** \n\nBrought to you by \n \n2Lions Team \n\nmeer zien?? \nKom dan eens kijken op ons forum \n   &lt;a href=&quot;\nhttp://www.2lions.ons-forum.nl&quot; rel=&quot;nofollow&quot; target=&quot;_NEW&quot;&gt;\nhttp://www.2lions.ons-forum.nl&lt;/a&gt; \n\n2Lions-Team for all your Dutch MOVIES and more \n\n*****************************************","torrent":{"xt":"urn:btih:d47490003f350eee3e400dac804e01bb575e921c","amp;dn":"Gamer+%282009%29+%28MPEG-4%29%28IPONE%29%28NL+SUBS%29+2Lions-Team","amp;tr":["udp%3A%2F%2Ftracker.openbittorrent.com%3A80","udp%3A%2F%2Fopen.demonii.com%3A1337","udp%3A%2F%2Ftracker.coppersurfer.tk%3A6969","udp%3A%2F%2Fexodus.desync.com%3A6969"],"infoHash":"d47490003f350eee3e400dac804e01bb575e921c","infoHashBuffer":{"type":"Buffer","data":[212,116,144,0,63,53,14,238,62,64,13,172,128,78,1,187,87,94,146,28]},"announce":[],"urlList":[]}}